<svg width="1440" height="1570" fill="none" xmlns="http://www.w3.org/2000/svg"><g clip-path="url(#background-pattern_svg__clip0)"><g clip-path="url(#background-pattern_svg__clip1)" fill="#E8E9E9"><path d="M2323.56 130.278c-82.76 43.028-147.74 117.229-178.48 203.725-6.8 19.099-12.07 38.857-17.12 57.956-7.25 27.661-14.93 56.419-27 82.763-26.35 56.859-74.43 103.399-117.01 144.232-19.32 18.66-37.11 37.54-42.81 62.566-2.2 9.879-3.74 20.197-5.05 30.076-2.2 15.367-4.17 31.173-9.66 46.102-11.86 33.368-39.08 59.712-64.1 81.446-4.62 3.951-9.23 7.683-13.84 11.635-22.17 18.66-45.22 37.979-61.9 62.127-14.49 20.856-23.93 44.565-33.15 67.616-5.93 14.708-11.86 30.078-19.32 44.348-19.98 39.07-50.05 72.66-86.94 97.25-45.66 30.51-76.39 81.88-84.08 141.38-2.85 21.95-2.19 44.56-1.31 66.3.44 14.48.87 29.41.44 44.12-1.32 35.57-24.59 109.33-52.69 134.14-59.71 52.9-68.06 55.98-114.82 63-9.88 1.54-20.19 1.54-30.07 1.76-9 0-18.44.22-27.66 1.31-30.74 3.96-61.03 19.98-84.96 45.45-16.47 17.56-30.3 39.51-41.05 65.64h2.41c10.54-25.47 24.15-46.98 40.17-64.11 23.49-25.02 53.13-40.83 83.65-44.56 9-1.1 18.44-1.32 27.44-1.32 9.88 0 20.19-.22 30.29-1.75 47.42-7.03 55.76-10.1 115.92-63.45 28.32-25.25 51.8-99.67 53.34-135.67.66-14.71 0-29.64-.44-44.13-.66-21.73-1.53-44.12 1.32-65.85 7.68-58.84 37.98-109.77 83.2-139.85 37.32-24.8 67.62-58.61 87.81-98.13 7.47-14.49 13.4-29.633 19.32-44.561 9.22-22.831 18.66-46.541 32.93-67.177 16.47-23.709 39.3-43.028 61.47-61.688 4.61-3.951 9.22-7.683 13.83-11.635 25.25-21.734 52.69-48.516 64.76-82.324 5.27-14.928 7.47-30.954 9.66-46.541 1.32-9.879 2.86-20.197 5.05-30.076 5.49-24.587 22.39-42.369 42.15-61.468 42.59-41.053 90.89-87.593 117.45-144.891 12.3-26.563 19.76-55.322 27.22-83.202 5.05-19.099 10.32-38.857 16.91-57.956 30.51-86.057 95.05-159.819 177.38-202.627C2400.4 92.738 2523.77 78.029 2614 96.25v-2.195c-25.9-5.269-54.22-7.684-83.64-7.684-73.54 0-152.36 15.587-206.8 43.907z"/><path d="M2365.93 36.32c-36 7.245-73.98 16.465-107.35 34.247-16.47 8.782-30.52 22.612-43.91 35.784-11.63 11.416-23.49 23.27-36.88 31.832-33.81 21.295-58.61 59.273-73.98 113.278-5.27 18.441-9.22 37.32-13.17 55.761-5.27 25.466-10.98 51.809-19.98 76.836-32.71 91.325-72.23 150.159-124.69 185.723-10.98 7.464-20.64 17.124-27.88 27.881-13.83 20.636-19.76 45.223-25.25 68.933-4.83 20.416-9.66 41.711-19.98 60.151-14.05 25.466-37.1 45.004-59.49 64.103-22.39 18.88-45.44 38.418-59.71 63.884-9.66 17.343-14.93 36.881-19.76 55.761-3.73 14.489-7.68 29.417-13.61 43.247-21.3 49.829-61.91 87.589-92.21 110.649-60.37 45.88-100.76 114.59-110.64 188.79-3.07 22.83-3.29 46.32-3.51 68.93-.22 12.74-.22 25.91-.88 38.86-2.19 44.57-10.76 77.06-27 102.74-27.22 42.81-82.33 71.13-143.79 73.98-13.18.66-27.01.22-40.18-.22-37.1-1.09-75.52-1.97-106.47 17.79-7.47 4.83-14.05 10.53-20.64 16.24-7.24 6.37-14.93 12.95-23.49 18-15.15 8.79-32.71 12.3-49.83 15.59-7.03 1.32-14.27 2.85-21.08 4.61-19.75 5.05-65.64 25.03-80.784 55.32-3.293 6.59-5.049 13.39-5.049 19.98h2.195c0-6.37 1.757-12.95 4.828-19.1 14.71-29.64 59.93-49.17 79.47-54.22 6.81-1.76 14.05-3.08 21.08-4.61 17.34-3.3 35.12-6.81 50.49-15.81 8.78-5.05 16.24-11.64 23.71-18.22 6.37-5.71 13.17-11.42 20.42-16.03 30.29-19.54 68.49-18.44 105.37-17.56 13.39.44 27.22.66 40.39.22 62.13-2.85 117.89-31.61 145.55-75.08 21.74-34.03 26.13-75.52 27.44-103.84.66-12.95.88-26.12.88-38.85.22-22.62.44-45.89 3.52-68.72 9.87-73.54 50.05-141.82 109.98-187.48 30.52-23.05 71.35-61.25 92.86-111.52 5.93-14.05 9.88-28.978 13.83-43.467 4.83-18.66 10.1-38.198 19.54-55.322 14.05-25.246 36.88-44.564 59.06-63.225 22.61-19.099 45.88-38.857 59.93-64.761 10.32-18.88 15.36-40.174 20.19-60.81 5.49-23.49 11.2-48.078 25.03-68.275 7.25-10.537 16.69-19.977 27.44-27.221 52.69-35.565 92.64-95.058 125.57-186.602 9-25.027 14.49-51.59 19.98-77.056 3.95-18.44 7.9-37.32 13.17-55.541 15.15-53.346 39.74-90.886 73.11-111.961 13.61-8.561 25.68-20.416 37.32-32.051 13.39-13.172 27.22-26.783 43.46-35.564 32.93-17.563 70.69-26.783 106.7-34.028 16.02-3.293 34.68-7.903 54.44-12.952 38.86-9.66 83.86-21.075 128.43-26.563h-15.81c-39.52 5.927-78.59 15.806-113.06 24.367-20.63 5.27-39.29 9.88-55.32 13.172z"/><path d="M1116.36 50.59c15.15 14.05 36.44 24.148 57.08 34.027 14.48 6.806 28.1 13.392 39.95 21.075 28.1 18.66 48.74 46.541 68.71 73.324 3.3 4.39 6.37 8.561 9.66 12.952 22.61 30.076 50.93 62.347 89.35 75.08 27.88 9.22 57.52 17.123 86.28 12.733 12.29-1.757 24.59-5.928 36.66-10.099 16.03-5.269 32.49-10.976 48.96-10.976 22.17-.22 39.07 3.951 52.02 12.513 10.54 7.025 19.54 17.562 28.32 33.149 13.83 24.807 16.03 52.029 18.44 81.007 1.32 14.928 2.64 30.515 5.71 45.443 11.42 55.541 6.59 115.693-13.39 168.82-2.63 7.025-5.71 14.269-8.56 21.075-10.1 23.928-20.42 48.955-19.54 75.079.66 21.734 9.22 42.37 17.34 62.128 7.03 17.343 14.49 35.125 16.69 53.785 3.73 31.393-7.47 59.712-17.78 77.933-14.27 25.685-34.91 47.639-51.37 63.884l-2.86 2.854c-12.51 12.294-25.46 25.026-31.83 41.272-6.81 17.342-3.29 41.052 14.05 50.712 10.54 5.71 24.59 5.49 37.76-.88 12.07-5.93 21.95-15.59 29.86-23.71 16.02-16.02 31.17-31.83 41.71-50.71 11.41-20.197 17.34-43.248 22.83-65.42 6.36-25.246 12.95-51.37 27.88-73.104 12.29-17.782 29.85-31.832 46.54-45.443 7.9-6.366 16.24-12.952 23.71-19.977 13.61-12.514 45-45.663 40.39-85.178-4.17-36.443 11.2-76.836 46.1-119.425 9-11.197 18.88-22.173 28.54-32.711 19.76-21.953 40.4-44.784 55.1-70.908 24.81-43.906 32.5-95.277 39.74-144.671.88-6.147 1.76-12.514 2.85-18.66 8.57-56.2 21.74-113.718 59.28-155.428 9-10.099 19.54-19.1 29.63-27.661 12.74-10.977 25.69-22.173 36.23-35.565 17.12-21.733 27.44-55.321 12.29-79.909h-2.63c15.8 23.93 5.7 57.078-11.2 78.592-10.32 13.172-23.27 24.368-35.78 35.125-10.1 8.782-20.64 17.782-29.86 27.881-38.2 42.15-51.37 100.106-59.93 156.526-.88 6.146-1.76 12.293-2.86 18.66-7.24 49.175-14.7 100.325-39.29 143.793-14.71 25.904-35.13 48.516-54.88 70.469-9.44 10.538-19.32 21.514-28.54 32.71-35.13 43.248-50.72 84.081-46.54 121.182 4.39 38.418-26.35 70.908-39.74 83.202-7.46 6.805-15.81 13.391-23.71 19.758-16.9 13.611-34.47 27.661-46.98 45.882-15.15 21.953-21.73 48.297-28.32 73.762-5.49 22.173-11.41 45.004-22.61 64.762-10.54 18.66-25.69 34.246-41.49 50.056-7.9 7.9-17.56 17.56-29.2 23.27-12.51 6.14-25.9 6.36-35.56 1.09-16.25-9-19.32-31.39-12.96-47.853 6.15-15.806 18.88-28.539 31.4-40.613l2.85-2.854c16.47-16.245 37.32-38.198 51.81-64.323 10.32-18.44 21.73-47.418 18-79.25-2.19-18.88-9.66-36.882-16.9-54.444-8.12-19.758-16.47-40.174-17.12-61.469-.88-25.685 9.43-50.273 19.53-74.201 2.86-7.025 5.93-14.05 8.57-21.295 20.63-54.444 25.24-113.278 13.61-169.917-3.08-14.928-4.39-30.295-5.71-45.224-2.42-27.88-4.83-56.639-18.88-81.885-9-16.026-18-26.783-28.98-34.027-13.39-8.781-30.95-12.952-53.35-12.733-16.68.22-33.36 5.708-49.61 11.196-11.85 3.952-24.15 8.123-36.22 9.879-28.32 4.391-57.74-3.512-85.18-12.513-37.76-12.514-65.86-44.565-88.25-74.202-3.3-4.171-6.37-8.562-9.66-12.952-19.98-27.003-40.61-55.102-69.15-73.982-11.86-7.903-25.47-14.27-40.18-21.295-20.41-9.879-41.71-19.977-56.64-33.588-14.27-13.172-24.15-30.076-28.98-49.834h-2.19c4.17 21.075 14.27 38.418 28.98 52.249z"/><path d="M1228.76 50.37c4.61 3.074 9.44 5.928 14.05 8.562 11.19 6.366 21.95 12.513 28.32 23.49 20.41 35.564 41.27 72.445 71.34 102.082 33.37 32.93 74.43 51.151 112.84 50.053 19.1-.439 37.76-5.488 56.2-10.537 23.49-6.367 47.64-12.733 71.79-9.221 64.54 9.44 93.96 81.227 103.62 111.742 28.1 88.471 24.15 184.625-10.76 270.901-2.63 6.806-5.71 13.611-8.56 20.197-6.59 15.367-13.61 31.174-18 47.419-5.27 19.099-9 46.98 3.07 71.567 9.88 20.636 33.81 39.296 60.37 35.125 30.96-4.83 48.08-36.662 53.13-62.347 2.63-12.733 3.29-25.904 4.17-38.637.88-15.148 1.98-30.954 5.93-45.882 7.46-28.32 25.03-52.907 42.15-76.617a799.003 799.003 0 0 0 15.59-22.172c39.29-58.615 62.12-126.67 66.07-196.7.66-9.879.88-19.758.88-29.637.66-34.686 1.54-70.689 17.78-101.643 6.15-11.855 14.71-22.612 22.84-33.149 9.87-12.514 19.97-25.466 26.34-40.175 16.68-38.417 6.8-81.446-6.37-125.79h-2.19c13.17 44.344 23.05 87.153 6.58 124.912-6.36 14.489-16.46 27.442-26.12 39.735-8.34 10.538-16.69 21.515-23.05 33.369-16.47 31.174-17.34 67.396-18 102.521-.22 9.66-.44 19.758-.88 29.418-3.95 69.591-26.78 137.426-65.64 195.602-5.05 7.464-10.32 14.928-15.37 21.953-17.12 23.929-34.9 48.736-42.37 77.275-3.95 15.148-5.05 30.954-5.93 46.321-.87 12.733-1.53 25.685-4.17 38.418-5.05 25.027-21.51 55.981-51.37 60.591-25.46 3.951-48.51-14.05-58.17-33.808-11.64-24.149-7.91-51.37-2.86-70.031 4.39-16.245 11.2-31.832 18.01-47.199 2.85-6.586 5.92-13.391 8.56-20.197 35.12-86.495 38.85-183.308 10.75-272.218-9.87-30.954-39.51-103.619-105.37-113.279-24.59-3.512-48.96 3.074-72.67 9.44-18.22 4.83-36.88 9.879-55.54 10.318-37.76 1.098-78.15-17.123-111.08-49.614-29.86-29.417-50.71-66.079-70.91-101.643-6.58-11.635-17.56-17.782-28.98-24.368-4.61-2.634-9.44-5.269-13.83-8.342-17.34-11.855-30.95-22.831-41.05-36.662-3.07-4.17-5.71-8.561-7.68-12.952h-2.42a76.8 76.8 0 0 0 8.34 14.05c9.44 14.709 23.27 25.685 40.62 37.76z"/><path d="M1368.16 69.908c18 30.515 36.66 62.128 68.27 78.812 29.86 15.806 64.77 15.148 98.57 14.27 30.74-.659 62.35-1.317 90.23 10.098 26.13 10.757 49.18 32.93 65.42 62.567 14.93 27.441 22.61 57.956 28.76 86.934 25.9 121.84 19.76 217.775-18.66 293.513-.88 1.757-1.98 3.513-2.85 5.489-6.81 13.171-14.05 27.002-13.62 41.93.22 10.099 5.71 20.416 14.05 26.344 6.15 4.61 13.18 5.927 19.98 4.171 10.76-3.074 16.91-13.611 19.1-22.612 1.76-7.025 1.98-14.269 1.98-21.294 0-2.854.22-5.708.22-8.562 2.19-37.979 22.39-71.787 42.15-104.497 12.73-21.075 25.9-43.028 34.24-66.079 15.81-43.248 15.15-90.227 14.49-135.451-.44-29.636-.88-60.371 3.3-89.788 3.51-25.246 10.53-50.273 17.34-74.421 4.61-16.465 9.22-33.369 12.95-50.273 10.54-49.394 8.56-89.349-5.93-121.84h-2.41c14.71 32.052 16.9 71.787 6.15 121.182-3.74 16.904-8.35 33.808-12.96 50.272-6.8 24.368-13.83 49.395-17.34 74.861-4.17 29.636-3.73 60.371-3.29 90.227.66 45.223 1.31 91.764-14.27 134.792-8.34 22.831-21.52 44.565-34.03 65.64-19.76 32.93-40.39 66.957-42.37 105.594-.22 2.854-.22 5.708-.22 8.562-.22 6.806-.22 14.05-1.97 20.856-1.98 8.342-7.91 18.221-17.57 21.075-5.92 1.756-12.29.439-18-3.732-7.68-5.708-12.73-15.368-13.17-24.588-.44-14.269 6.59-27.88 13.39-40.833.88-1.756 1.98-3.732 2.86-5.488 38.85-76.177 45-172.552 18.87-294.83-6.14-28.979-14.05-59.713-28.97-87.374-16.25-30.076-39.96-52.687-66.52-63.444-28.32-11.636-60.15-10.977-91.11-10.318-33.59.658-68.27 1.536-97.47-14.05-30.95-16.465-49.39-47.639-67.39-77.934-15.15-25.466-30.52-51.81-53.79-69.592h-3.73c23.93 16.465 39.95 43.468 55.32 69.811z"/><path d="M1562.01 117.108c12.07 3.951 25.02 6.366 37.32 8.562 16.9 3.073 34.68 6.366 50.49 13.83 30.95 14.27 50.27 41.711 61.03 61.908 13.39 25.685 21.07 54.005 28.32 83.202 4.83 19.319 12.29 29.198 23.27 30.296 8.34.878 17.12-4.61 21.29-13.172 4.17-8.342 3.74-18.441 3.3-25.027-1.32-12.952-4.61-25.904-7.91-38.418-4.39-16.465-8.78-33.808-8.12-50.931.66-18.66 7.24-36.662 13.61-54.005 4.17-11.196 8.34-23.05 10.98-34.686 7.46-32.93 2.41-69.152-13.83-99.008l-1.98 1.097c16.03 29.417 20.86 64.982 13.61 97.472-2.63 11.635-6.8 23.271-10.97 34.467-6.37 17.562-12.96 35.783-13.83 54.663-.66 17.562 3.73 34.905 8.12 51.59 3.29 12.294 6.58 25.246 7.68 37.979.88 10.318 0 17.782-3.07 23.929-3.08 6.366-10.54 12.733-19.1 11.855-9.88-1.098-16.9-10.319-21.51-28.759-7.25-29.417-14.93-57.957-28.54-83.861-10.76-20.636-30.3-48.297-61.91-63.006-16.03-7.464-33.81-10.757-50.93-14.05-12.3-2.195-25.03-4.61-37.1-8.562-28.54-9.22-55.98-28.1-79.25-54.663-17.35-19.538-30.96-41.491-41.72-61.469h-2.41c10.98 20.197 24.81 42.809 42.59 62.786 23.93 27.442 51.59 46.541 80.57 55.981zm770.33 571.22c-15.59-9.659-29.85-21.733-43.69-33.588-22.61-19.319-45.88-39.296-75.07-47.858-64.99-18.879-129.09 26.344-164.21 70.909-18.88 23.929-34.25 50.712-49.18 76.616-15.59 27.222-31.83 55.322-51.81 80.129-15.59 19.099-33.81 36.662-51.37 53.566-26.34 25.246-53.56 51.59-72.22 83.422-8.79 15.147-15.59 31.396-22.18 47.196-7.9 19.1-16.24 38.86-28.1 56.42-17.12 25.47-41.71 46.1-65.42 65.86-29.85 25.03-60.81 50.93-76.39 86.72-17.57 39.95-13.4 84.74-9.01 128.2 4.18 42.37 8.35 86.28-7.9 125.14-20.63 49.39-71.13 81.44-112.62 103.83-10.76 5.71-26.12 11.64-43.69 18.66-46.54 18.22-107.78 41.93-128.86 81.45h2.63c21.3-38.2 81.23-61.47 127.33-79.47 17.78-6.81 33.15-12.95 43.91-18.66 41.93-22.61 92.64-54.88 113.5-104.94 16.46-39.51 12.29-83.64 8.12-126.23-4.17-43.24-8.56-87.81 8.78-127.11 15.59-35.12 46.32-61.03 75.96-85.83 23.71-19.98 48.51-40.62 65.64-66.3 11.85-17.56 20.2-37.54 28.32-56.86 6.58-15.81 13.39-32.051 21.95-46.979 18.44-31.612 45.44-57.736 71.79-82.983 17.56-16.904 36-34.466 51.59-53.785 20.19-24.807 36.44-53.126 52.03-80.348 14.92-25.905 30.29-52.688 48.95-76.397 34.69-44.126 97.91-88.91 161.8-70.25 28.54 8.342 51.81 28.1 74.2 47.419 13.83 11.854 28.32 24.148 43.9 33.808 45.23 27.88 86.06 35.564 128.65 24.587 49.39-12.952 100.11-51.151 154.33-117.01v-3.513c-128.86 156.965-217.77 133.475-281.66 94.179zM1115.92 106.351l7.02 4.171c23.27 13.611 47.42 27.881 66.52 46.98 19.76 19.757 33.81 44.345 47.2 68.274 3.95 7.025 8.34 14.489 12.51 21.733 15.15 25.466 39.74 60.811 76.84 75.519 32.71 12.953 69.59 8.123 98.13 2.195 7.68-1.536 15.37-3.292 22.83-5.049 24.15-5.488 49.18-10.976 74.42-10.976 37.54.219 69.16 14.928 84.74 39.515 10.1 16.026 12.73 35.126 14.71 51.81 6.81 62.786 3.73 152.794-11.63 181.333-2.2 3.951-4.83 8.561-7.47 13.391-16.46 29.198-39.08 68.933-32.05 103.18 3.29 16.245 12.29 33.368 21.07 50.053 12.52 24.148 25.47 48.955 22.4 72.226-4.17 31.393-27.01 53.565-51.15 77.275-29.64 28.978-60.16 59.054-61.25 109.109-.22 12.07 3.95 28.76 7.9 44.78 4.17 17.34 8.78 35.13 7.9 47.64-1.09 18.44-6.8 28.98-13.39 41.27-4.17 7.91-8.56 15.81-12.29 27-14.27 41.5-23.71 90.67-29.42 154.55-4.39 49.18-9.44 104.72-54.66 131.06-30.74 17.79-67.84 18.45-104.06 19.1-34.69.66-70.47 1.1-100.98 16.91-15.37 7.9-28.54 19.1-41.28 30.07-7.02 5.93-14.27 12.3-21.73 17.79-15.15 11.19-46.32 21.07-76.4 30.51-24.58 7.68-47.64 14.93-61.03 22.61-19.096 10.98-38.854 40.62-45.879 69.15-1.756 7.25-3.073 16.25-2.414 25.25h2.195c-.659-8.78.659-17.56 2.415-24.59 6.805-27.88 26.124-57.08 44.783-67.61 13.17-7.47 36.22-14.71 60.59-22.39 30.3-9.66 61.69-19.54 77.06-30.96 7.46-5.71 14.71-11.85 21.73-17.78 12.73-10.98 25.91-22.17 40.83-29.86 30.08-15.36 65.64-16.02 99.89-16.46 36.22-.66 73.76-1.1 104.94-19.32 46.1-26.78 51.37-83.2 55.76-132.82 5.7-63.88 15.14-112.84 29.41-154.11 3.74-10.97 8.13-18.88 12.3-26.56 6.8-12.51 12.51-23.27 13.61-42.15.88-12.95-3.73-30.96-7.9-48.3-3.96-16.02-8.13-32.49-7.69-44.34 1.1-49.178 31.4-78.815 60.59-107.574 24.37-23.929 47.42-46.54 51.81-78.592 3.3-23.929-9.88-49.175-22.61-73.543-8.56-16.465-17.56-33.368-20.85-49.394-7.03-33.369 15.58-72.885 31.83-101.643 2.63-4.83 5.27-9.221 7.46-13.392 15.59-28.978 18.66-119.425 11.86-182.65-1.76-16.904-4.61-36.442-14.93-52.687-15.81-25.027-48.08-40.174-86.5-40.394-25.24-.219-50.49 5.488-74.86 10.977-7.46 1.756-15.15 3.512-22.83 5.049-28.1 5.708-64.54 10.537-96.81-2.195-36.44-14.489-60.81-49.614-75.96-74.641-4.17-7.025-8.56-14.489-12.51-21.514-13.61-23.929-27.88-48.956-47.64-68.714-19.32-19.318-43.47-33.588-66.96-47.418l-7.02-4.171c-25.25-14.928-51.59-31.613-70.03-55.103-12.08-15.586-19.54-33.149-21.3-50.272h-2.19c1.75 17.562 9.22 35.564 21.73 51.59 18.66 23.27 45.22 39.954 70.69 55.102z"/><path d="M666.1 124.572c41.052 33.149 95.935 54.005 167.722 63.664 33.588 4.61 68.055 6.366 101.423 8.123 26.125 1.317 53.347 2.853 79.695 5.707 30.73 3.293 66.07 8.782 94.61 26.344 24.37 14.928 42.81 37.76 60.59 59.713 4.39 5.488 9 11.196 13.61 16.465 10.54 12.293 19.98 17.123 28.76 14.708 9.22-2.634 13.83-12.952 13.61-21.514-.43-9.001-4.83-17.343-9-24.587-12.73-23.49-27.44-50.054-50.27-68.055-15.15-11.855-33.37-19.538-50.71-26.783-9-3.732-18.22-7.684-27-12.074C1030.3 136.646 969.712 61.786 950.613-1h-2.196c19.1 63.444 80.353 139.183 139.843 169.259 8.78 4.39 18 8.342 27 12.074 17.34 7.244 35.35 14.928 50.27 26.563 22.62 17.782 37.1 44.126 49.84 67.396 3.95 7.025 8.34 15.148 8.56 23.71.44 7.683-3.73 17.123-11.86 19.318-8.12 2.196-16.68-2.415-26.56-14.05-4.61-5.488-9.22-10.976-13.61-16.465-18-22.172-36.44-45.003-61.03-60.151-28.98-17.782-64.54-23.49-95.5-26.783-26.559-2.854-53.561-4.171-79.905-5.708-33.369-1.756-67.616-3.732-101.204-8.122-71.567-9.66-126.011-30.296-166.624-63.225C627.024 90.106 602.656 44.004 600.241-1h-2.196c2.196 45.662 27.003 92.203 68.055 125.572z"/><path d="M731.08 92.52c36.003 22.392 81.446 35.564 139.183 40.833 15.148 1.317 30.734 1.317 41.272-8.342 13.172-11.855 11.416-32.93 2.854-47.858-5.269-9.22-12.733-17.123-19.977-24.807-4.172-4.61-8.562-9.22-12.514-14.05-5.269-6.586-16.245-22.831-13.611-39.076h-2.195c-2.634 17.123 8.562 33.588 14.05 40.613 3.952 5.049 8.342 9.66 12.733 14.27 7.025 7.683 14.489 15.366 19.758 24.367 8.122 14.05 9.879 34.028-2.415 45.004-9.879 9.001-25.027 9.001-39.735 7.684-57.298-5.05-102.741-18.441-138.305-40.394-36.662-22.831-62.786-55.98-72.884-91.544h-2.196c10.099 36.222 36.442 70.03 73.982 93.3z"/><path d="M803.525 240.924c27.881 1.975 56.859.219 84.959-1.537 50.712-3.073 103.18-6.366 149.936 13.172 42.37 17.782 74.64 52.029 105.82 85.178 8.56 9.22 17.56 18.66 26.56 27.661 37.54 37.54 95.28 79.251 156.53 66.518 17.12-3.513 32.93-11.196 48.29-18.66 12.52-6.147 25.47-12.294 38.86-16.246 45.44-13.391 97.69.439 129.96 34.686 32.27 34.247 42.15 86.276 24.59 129.524-6.59 16.465-17.12 31.832-27 46.979-16.25 23.929-32.93 48.956-33.59 77.715-.66 22.172 8.56 43.247 17.34 63.444 7.69 17.343 15.37 35.564 17.13 54.224 2.63 30.735-10.76 64.103-41.28 101.643a781.7 781.7 0 0 1-17.56 20.856c-18.66 21.733-38.2 44.345-49.61 70.908-14.27 32.931-15.15 79.911 16.68 105.371 24.81 19.76 6.81 65.64.66 79.26-5.71 12.51-13.17 24.14-20.2 35.56-7.24 11.63-14.92 23.71-20.63 36.44-6.81 15.15-10.98 31.17-14.93 46.98-3.51 13.83-7.24 27.88-12.51 41.27-15.81 39.08-47.2 71.79-86.06 89.57-43.47 19.76-94.18 20.64-138.74 21.52-18.22.43-35.35 6.58-49.84 18-12.51 9.88-22.83 22.61-32.71 34.68l-3.73 4.61c-10.98 13.39-22.83 27.01-38.42 36.45-7.46 4.39-15.58 7.9-23.27 11.19-4.83 1.98-9.66 4.17-14.486 6.37-12.075 5.93-109.986 55.76-115.254 120.52h2.415c4.829-51.59 71.128-97.91 113.717-118.55 4.608-2.19 9.658-4.39 14.268-6.36 7.9-3.3 16.25-6.81 23.71-11.42 15.81-9.66 27.88-23.49 38.86-37.1l3.73-4.61c9.88-12.07 19.98-24.59 32.49-34.47 14.05-11.19 30.95-17.34 48.52-17.56 45-.88 95.71-1.75 139.62-21.73 39.51-18 71.35-51.15 87.15-90.67 5.49-13.39 9-27.66 12.52-41.49 3.95-15.59 8.12-31.61 14.7-46.54 5.71-12.51 13.18-24.59 20.42-36 7.25-11.42 14.71-23.27 20.42-36.01 6.36-14.05 24.8-61.03-1.32-81.88-29.64-23.71-30.51-69.59-16.03-102.742 11.42-26.344 30.74-48.736 49.4-70.47a799.317 799.317 0 0 0 17.56-20.855c30.96-38.199 44.57-72.006 41.93-103.399-1.75-19.099-9.66-37.321-17.34-54.883-8.78-19.977-17.78-40.833-17.12-62.566.65-28.32 16.46-51.81 33.14-76.617 10.1-15.148 20.64-30.515 27.23-47.199 17.78-44.126 7.68-97.033-25.03-131.719-32.71-34.686-85.84-48.955-132.16-35.344-13.61 3.951-26.56 10.318-39.07 16.464-15.15 7.465-30.96 14.929-47.86 18.441-60.37 12.513-117.45-28.978-154.55-65.859-9-9.001-18-18.441-26.57-27.661-31.39-33.369-63.66-67.616-106.47-85.617-47.197-19.758-99.885-16.465-150.816-13.392-27.881 1.756-56.859 3.513-84.52 1.537C672.904 229.508 554.797 125.011 530.648-1h-2.195c24.148 127.109 143.134 232.484 275.072 241.924z"/><path d="M922.292 1569.53l.658-.44c75.738-55.54 154.11-113.28 243.68-148.19 20.64-8.12 39.95-18 41.71-36.44 1.54-17.56-16.24-31.83-33.81-34.25-2.85-.43-5.49-.65-8.34-.65-12.07 0-23.93 3.29-35.56 6.36l-7.25 1.98c-40.39 10.32-83.64 12.29-124.692 5.71-6.146-.88-12.513-2.2-18.44-3.3-20.197-3.73-40.833-7.68-61.469-5.05-24.368 3.3-49.395 16.47-74.202 39.3-15.806 14.49-30.075 30.95-43.686 46.98-12.953 15.15-26.344 30.73-41.053 44.56-20.855 19.76-63.444 51.81-111.741 45.67-28.539-3.74-53.126-19.98-77.055-35.57-17.343-11.41-35.125-23.05-54.444-30.51-59.493-22.17-134.353 1.32-178.04 55.76-33.808 42.37-49.394 100.98-44.126 163.55h2.196c-5.489-61.91 10.098-120.3 43.467-162.23 43.028-53.79 116.79-77.06 175.405-55.11 19.319 7.25 36.882 18.88 54.005 30.3 24.148 15.81 48.955 32.27 77.933 36 49.395 6.37 92.423-26.12 113.498-46.1 14.928-13.83 28.32-29.64 41.272-44.78 13.611-16.03 27.88-32.49 43.467-46.76 24.368-22.4 48.956-35.35 73.104-38.64 20.197-2.86 40.833 1.1 60.81 4.83 6.147 1.1 12.294 2.41 18.441 3.29 41.49 6.59 84.96 4.61 125.57-5.71 2.42-.66 4.83-1.31 7.25-1.97 14.05-3.73 28.75-7.69 43.24-5.71 16.47 2.2 33.15 15.59 31.84 31.83-1.54 17.13-20.2 26.78-40.18 34.69-90.01 34.9-168.379 92.64-244.117 148.4l-.659.44c-30.295 22.39-96.813 71.13-99.008 117.23h2.195c2.195-45 68.055-93.3 98.131-115.47z"/><path d="M817.575 1567.55c17.782-12.95 37.759-23.71 57.078-34.03 19.538-10.53 39.735-21.29 57.956-34.46 8.562-6.15 18.221-14.05 23.929-24.59 6.147-11.2 6.586-24.15.878-33.37-5.927-9.66-17.343-13.83-28.758-13.83-5.708 0-11.416 1.1-16.465 3.07-14.928 5.93-26.124 17.57-36.881 28.98l-1.098 1.32c-32.491 34.03-82.763 82.32-145.549 108.89-61.25 25.9-127.768 26.34-178.04 1.09-7.464-3.73-14.928-8.12-21.953-12.29-18.661-10.98-37.979-22.39-59.713-23.49-42.809-1.98-76.397 38.2-80.788 76.84-2.634 23.27 2.196 47.63 14.49 73.32h2.414c-12.293-25.47-17.343-49.83-14.708-73.1 4.171-36.89 35.344-75.08 75.519-75.08h3.073c21.295 1.09 40.394 12.29 58.615 23.05 7.244 4.17 14.709 8.56 22.173 12.51 50.711 25.47 118.107 25.03 179.796-1.1 63.005-26.56 113.717-75.08 146.208-109.32l1.097-1.32c10.757-11.2 21.734-22.83 36.223-28.54 14.27-5.71 34.027-3.51 42.37 9.88 5.268 8.56 5.049 20.42-.879 31.17-5.488 10.1-14.928 17.78-23.27 23.93-18.001 13.17-38.198 23.93-57.737 34.47-19.318 10.32-39.296 21.07-57.297 34.02-30.735 22.18-62.567 76.18-66.518 119.21h2.195c3.952-42.15 35.345-95.5 65.64-117.23z"/><path d="M392.344 105.253c18.221 41.931 46.979 82.105 85.836 118.986 35.564 33.808 70.689 56.859 107.351 70.25 60.371 21.953 126.231 18.002 189.895 14.269 27.441-1.536 55.761-3.292 83.202-2.853 25.246.439 58.176 2.415 87.374 15.806 37.1 17.123 68.278 47.638 95.498 93.301 38.2 64.322 122.72 99.447 196.48 81.665 20.2-4.829 39.73-13.391 58.39-21.514 14.49-6.366 29.64-12.732 44.79-17.562 41.71-13.172 80.79-8.781 104.06 11.635 36.44 32.051 26.34 89.13 20.41 112.18-2.85 11.196-6.58 22.393-10.1 33.15-8.78 27.441-18 55.761-16.46 84.958.88 18.002 5.93 35.784 10.76 53.127 5.92 21.514 12.29 43.686 10.31 66.079-3.07 34.466-23.71 62.127-45.44 91.544-15.81 21.295-32.05 43.248-40.83 67.835-10.54 29.421-10.1 61.031-9.66 91.761.22 20.42.66 41.71-2.42 62.13-9.66 66.3-55.76 127.33-120.3 159.16-61.03 30.08-135.67 33.81-204.6 10.76-9.88-3.3-19.98-7.25-29.86-11.2-33.148-12.95-67.395-26.34-102.3-19.54-48.297 9.44-80.568 54.45-106.254 90.45-27.88 38.86-62.566 79.25-109.107 82.76-33.368 2.64-62.566-13.83-93.301-30.95-14.928-8.34-30.295-16.9-46.101-23.27-37.54-14.71-80.568-15.81-124.694-3.51-39.955 11.19-79.69 33.37-111.741 62.78-52.688 48.3-130.182 149.94-162.014 236h2.414c32.052-85.62 108.888-186.6 161.356-234.46 69.811-63.88 161.795-86.93 234.02-58.62 15.587 6.15 30.954 14.71 45.882 23.06 29.637 16.68 60.372 33.8 94.399 31.17 47.419-3.51 82.763-44.35 110.863-83.64 25.685-35.79 57.517-80.57 104.936-89.57 34.247-6.59 68.274 6.58 101.202 19.54 9.88 3.73 19.98 7.9 29.86 11.19 69.59 23.49 144.89 19.54 206.36-10.75 65.2-32.06 111.74-93.74 121.62-160.7 3.07-20.64 2.63-41.71 2.41-62.35-.44-30.51-.88-62.12 9.66-91.103 8.78-24.368 25.03-46.102 40.62-67.177 21.07-28.319 42.8-57.736 45.88-92.642 1.97-22.831-4.17-45.223-10.32-66.957-4.83-17.123-9.66-34.686-10.54-52.468-1.31-28.758 7.69-56.858 16.47-84.08 3.51-10.977 7.24-22.173 10.1-33.369 6.14-23.49 16.46-81.665-21.08-114.376-23.93-21.075-63.66-25.465-106.25-12.074-15.37 4.83-30.52 11.416-45.01 17.782-18.66 8.123-37.98 16.465-58.17 21.295-72.89 17.562-156.31-17.124-194.07-80.568-27.44-46.102-58.832-76.836-96.372-94.179-29.417-13.611-62.567-15.807-88.252-16.026-27.661-.439-55.98 1.317-83.422 2.854-63.444 3.732-129.084 7.683-189.016-14.05-36.442-13.172-71.348-36.003-106.692-69.811-38.418-36.662-67.177-76.397-85.179-118.108C380.05 70.567 372.586 34.564 373.025-.122h-2.196c-1.317 34.027 6.367 70.25 21.515 105.375z"/><path d="M397.173 327.199c69.372 71.348 156.087 111.083 237.313 109.327 34.467-.878 68.714-8.781 101.643-16.465 15.368-3.512 31.393-7.245 46.98-10.318 62.347-11.635 109.985-6.586 145.988 15.367 23.271 14.27 41.272 35.784 58.396 56.42 8.781 10.537 17.777 21.514 27.657 31.393 60.81 61.908 154.99 88.471 240.17 68.054 22.83-5.488 56.2-1.536 79.91 4.172 25.69 6.146 45.66 23.27 50.71 43.686 3.73 14.928.22 29.637-3.73 45.224-2.63 10.318-5.27 21.075-5.49 31.832-.22 14.269 3.73 28.1 7.47 41.491 3.73 12.952 7.46 26.124 7.46 39.516 0 37.32-28.1 68.493-56.64 97.252-27.88 27.881-62.35 62.347-106.03 73.763-39.3 10.098-78.38.658-119.87-9.221-27.66-6.586-56.42-13.611-84.74-13.83-35.78-.22-71.783 9.659-106.469 19.318-50.053 13.831-97.252 27.003-144.451 12.294-29.198-9.22-53.785-28.539-77.495-46.979-12.074-9.44-24.587-19.319-37.54-27.661-47.638-30.735-107.79-47.419-178.918-49.175-46.979-1.318-86.495 4.171-120.742 16.903-22.612 8.343-43.687 20.636-64.103 32.491-16.026 9.44-32.49 19.099-49.614 26.783-52.029 23.27-76.836 5.927-100.765-10.757-10.318-7.245-20.855-14.489-33.368-18.441-11.416-3.512-22.612-7.464-33.589-11.415-33.588-11.855-65.42-23.051-100.765-23.49-20.197-.22-44.345-4.61-70.03-9.001-34.247-5.927-71.567-12.513-102.96-9.659v2.195c31.173-3.074 68.274 3.512 102.52 9.44 25.686 4.61 50.054 8.781 70.47 9.001 34.906.439 66.518 11.635 100.106 23.27 10.977 3.951 22.173 7.903 33.589 11.415 12.074 3.733 22.173 10.757 32.71 18.222 24.368 17.123 49.834 34.685 102.96 10.976 17.343-7.683 33.808-17.343 49.834-26.783 20.197-11.854 41.272-24.148 63.664-32.49 34.027-12.514 73.104-18.002 119.864-16.685 70.689 1.976 130.621 18.221 177.82 48.956 12.952 8.342 25.466 18.221 37.32 27.661 23.929 18.66 48.736 38.198 78.154 47.419 47.638 14.928 97.471 1.097 145.549-12.294 34.686-9.66 70.469-19.539 105.809-19.319 28.32.22 56.86 7.245 84.3 13.831 39.74 9.659 81.01 19.538 120.97 9.22 44.12-11.416 79.03-46.321 106.91-74.202 28.98-28.978 57.52-60.59 57.3-98.789 0-13.611-3.74-27.222-7.47-40.174-3.73-13.391-7.68-27.002-7.46-41.052.22-10.538 2.85-21.075 5.27-31.393 3.73-15.148 7.68-30.954 3.73-46.321-5.27-21.075-25.91-38.857-52.47-45.224-11.63-2.634-51.81-11.196-80.79-4.171-84.3 20.417-177.82-6.147-237.97-67.396-9.66-9.879-18.659-20.636-27.44-31.173-17.343-20.856-35.345-42.37-59.054-56.859-36.442-22.392-84.739-27.441-147.525-15.587-15.806 2.854-31.613 6.586-47.199 10.318-32.93 7.684-66.957 15.807-101.204 16.465-80.788 1.756-166.624-37.759-235.777-108.668-62.347-63.883-104.936-143.134-146.207-219.751L194.327-.78h-2.416l57.957 108.009c42.15 76.397 84.739 155.867 147.305 219.97z"/><path d="M4.432 126.328c32.71 23.051 72.007 36.223 109.986 48.956l2.414.878c56.2 19.099 106.692 61.249 158.502 132.596 12.733 17.563 25.027 35.784 36.881 53.566 26.563 39.516 54.005 80.349 87.813 115.035 57.078 58.175 125.791 88.031 188.797 81.446 40.174-4.172 77.055-22.393 112.619-39.955 7.025-3.513 14.27-7.025 21.295-10.538 38.637-18.44 89.349-38.198 137.646-25.904 42.15 10.537 74.201 43.028 105.155 74.64 32.93 33.369 66.74 67.835 112.84 75.739 30.51 5.268 61.69-2.196 91.54-9.44 7.47-1.756 15.37-3.732 23.05-5.269 48.96-10.537 85.84-5.488 109.55 15.148 27.44 23.709 32.05 63.005 34.47 101.423 2.85 43.028 3.51 81.007-16.03 112.4-30.51 48.955-100.1 59.713-154.77 53.127-20.85-2.415-41.93-6.586-62.13-10.757-36.22-7.245-73.54-14.929-110.859-12.294-29.636 1.976-59.493 10.098-88.471 18.001-50.931 13.831-99.009 27.003-145.769 9.44-31.173-11.635-55.541-35.564-79.031-58.615-14.928-14.708-30.295-29.856-47.638-42.15-73.763-52.248-174.089-45.223-243.021-35.344-15.807 2.195-32.052 4.829-47.639 7.464-66.298 10.757-135.012 21.953-201.31 9.22-30.734-5.927-62.786-1.097-93.96 3.513-34.685 5.268-70.469 10.537-103.618.658-19.1-5.708-39.955-15.367-62.127-25.465-25.905-11.855-52.249-24.149-77.056-30.296v2.196c24.368 6.146 50.492 18.221 76.177 30.075 22.173 10.318 43.248 19.978 62.347 25.686 33.808 9.878 69.811 4.61 104.717-.659 30.954-4.61 62.786-9.44 93.081-3.513 66.737 12.953 135.451 1.757 201.969-9.22 15.587-2.634 31.832-5.269 47.638-7.464 68.714-9.879 168.381-16.904 241.485 34.906 17.123 12.074 32.49 27.221 47.199 41.93 23.709 23.27 48.077 47.419 79.69 59.054 47.418 17.782 98.13 3.952 147.086-9.44 28.758-7.903 58.614-16.026 88.032-18.001 37.098-2.415 74.198 5.049 110.208 12.293 20.41 4.171 41.49 8.342 62.34 10.757 55.54 6.367 125.79-4.39 156.97-54.224 19.98-31.832 19.32-70.469 16.46-113.717-2.41-38.857-7.24-78.592-35.34-102.96-24.37-21.075-61.91-26.344-111.52-15.587-7.69 1.756-15.37 3.513-23.05 5.269-29.86 7.244-60.59 14.709-90.67 9.44-45.44-7.903-79.032-42.15-111.742-75.299-31.174-31.613-63.445-64.323-106.253-75.08-48.956-12.294-100.106 7.464-139.183 26.124-7.025 3.293-14.27 7.025-21.295 10.538-35.564 17.562-72.225 35.783-111.961 39.735-62.346 6.366-130.401-23.051-187.04-80.788-33.808-34.466-61.249-75.299-87.593-114.595-11.855-17.782-24.149-36.003-36.882-53.566-52.248-71.786-102.96-114.156-159.599-133.475l-2.414-.878c-37.76-12.733-76.837-25.905-109.327-48.736C-37.06 94.716-65.818 48.834-73.721-1.219h-2.195c8.561 50.93 37.54 97.471 80.348 127.547z"/><path d="M737.667 822.681c30.515 20.636 73.323 28.1 123.815 21.514 21.734-2.853 43.467-7.683 64.323-12.513 19.977-4.61 40.613-9.22 61.03-12.074 63.665-8.781 122.055 3.952 183.965 17.562h.44c25.69 5.708 87.37 12.294 106.25-47.857 7.91-25.685 1.54-54.664-16.46-74.202-30.08-32.49-81.67-33.149-117.67-30.954-3.95.22-8.12.439-12.07.878-37.98 2.635-77.5 5.269-110.21-12.293-19.54-10.538-34.904-27.442-49.613-43.907-3.732-3.951-7.464-8.342-11.196-12.293-25.685-27.442-49.175-43.468-74.201-50.273-8.123-2.195-16.465-3.293-24.588-3.293-23.929 0-46.321 9.44-59.054 25.905-6.366 8.122-10.318 17.562-14.269 27.002-3.074 7.245-6.366 14.709-10.538 21.514-9 14.05-22.611 24.807-36.003 35.345-14.489 11.415-29.197 23.05-38.198 39.076-21.953 39.296.658 88.032 34.247 110.863zm-32.271-109.765c8.781-15.587 23.489-27.222 37.759-38.418 13.391-10.538 27.222-21.514 36.442-35.784 4.391-6.805 7.684-14.489 10.757-21.953 3.952-9.001 7.903-18.441 14.05-26.344 16.685-21.294 50.053-30.295 81.227-21.733 24.587 6.805 47.858 22.612 73.104 49.614 3.732 3.951 7.464 8.123 11.196 12.294 14.928 16.464 30.299 33.588 50.049 44.345 21.3 11.416 45.23 14.489 69.6 14.489 13.83 0 27.88-.878 41.93-1.976 3.95-.219 8.12-.658 12.07-.878 35.78-2.195 86.5-1.537 116.13 30.295 17.56 18.88 23.71 47.2 16.03 72.007-18.22 58.395-78.59 51.809-103.62 46.321h-.44c-62.13-13.611-120.74-26.564-184.845-17.782-20.636 2.854-41.272 7.464-61.25 12.074-20.855 4.83-42.589 9.659-64.103 12.513-50.053 6.367-92.203-.878-122.279-21.294-32.929-22.173-55.102-69.592-33.807-107.79z"/><path d="M815.381 813.9c23.051 3.293 46.541-2.195 68.933-7.684 3.951-.878 8.123-1.976 12.074-2.854 51.37-11.635 104.062-14.928 156.742-9.879l2.86.22c15.58 1.537 31.61 3.073 45.66-3.293 8.56-3.952 18.22-15.587 19.1-26.563.44-6.367-1.98-11.416-7.03-14.928-7.02-4.61-20.41-4.61-33.36-4.61-8.13 0-15.81 0-21.08-1.098-37.98-8.342-71.567-28.978-94.398-57.956-3.952-5.05-7.684-10.538-11.416-15.587-5.927-8.342-11.854-17.123-19.099-24.807-12.733-13.391-28.1-20.855-42.369-20.855-1.098 0-2.415-.001-3.513.219-18.001 1.537-31.832 14.709-40.613 25.246-4.391 5.488-8.342 11.196-12.294 16.904-5.049 7.245-10.098 14.928-16.245 21.514-6.147 6.805-13.392 12.952-20.636 18.66-5.049 4.171-10.318 8.562-15.148 12.953-14.269 13.61-21.953 27.66-22.392 41.491-.878 27.88 27.441 48.955 54.224 52.907zm-51.809-52.688c.439-13.171 7.683-26.782 21.733-39.954 4.83-4.61 9.879-8.781 14.929-12.953 7.025-5.927 14.489-11.854 20.855-18.879 6.147-6.806 11.416-14.489 16.465-21.734 3.732-5.708 7.683-11.415 12.074-16.684 8.342-10.318 21.953-23.051 39.077-24.588 14.708-1.317 30.734 5.928 44.125 19.978 7.245 7.464 13.172 16.025 18.88 24.368 3.732 5.268 7.464 10.757 11.416 15.806 23.27 29.417 57.294 50.272 95.714 58.615 5.27 1.097 12.3 1.097 19.98 1.097h1.54c12.07 0 25.68 0 32.05 4.391 4.61 3.073 6.58 7.464 6.14 12.952-.87 10.099-9.88 21.075-17.78 24.588-13.61 6.366-29.42 4.61-44.56 3.073l-2.86-.219c-52.68-5.269-105.811-1.976-157.401 9.878-3.951.879-8.122 1.976-12.074 2.854-22.392 5.269-45.443 10.977-68.055 7.684-25.904-3.512-53.346-23.709-52.248-50.273zM-9.617 229.069c16.684 6.586 33.368 14.05 49.394 21.514 34.027 15.367 68.933 31.393 106.033 38.857 50.273 9.879 95.716 48.516 135.232 114.595 8.342 13.831 16.245 28.32 23.928 42.37 21.295 38.857 43.248 79.031 75.519 110.424 49.395 48.297 117.669 71.567 183.748 94.179 13.391 4.61 27.222 9.22 40.393 14.05 11.197 3.952 21.954 8.342 30.076 15.587 7.464 6.805 13.392 18.66 9.879 29.417-3.732 10.976-15.806 17.123-26.344 18.44-10.976 1.318-22.172-1.317-33.149-3.951l-1.537-.439c-140.939-32.71-289.122-29.198-428.524 10.098-46.541 13.172-99.887 25.685-146.428 7.025-38.857-15.367-72.225-42.15-104.277-68.274-6.147-5.049-12.513-10.098-18.66-14.928-23.929-18.88-51.151-38.418-81.446-51.151v2.415c29.637 12.733 56.42 31.832 79.909 50.492 6.147 4.83 12.514 9.879 18.66 14.928 32.272 26.124 65.64 52.907 104.937 68.494 47.199 18.66 100.984 6.147 147.744-7.025 138.963-39.296 286.707-42.808 427.427-10.098l1.537.439c10.976 2.634 22.392 5.268 33.807 3.951 10.318-1.317 23.929-7.244 28.1-19.977 3.513-10.318-.658-22.831-10.537-31.613-8.342-7.683-19.319-12.074-30.734-16.025-13.392-4.83-27.222-9.44-40.394-14.05-65.86-22.393-133.695-45.663-182.87-93.521-32.051-31.173-53.785-71.347-75.079-109.985-7.684-14.05-15.587-28.539-23.929-42.369-39.735-66.738-85.837-105.595-136.548-115.693-36.662-7.245-71.567-23.271-105.375-38.638-16.246-7.464-32.93-14.928-49.614-21.514C-102.26 190.212-169.216 97.35-174.485-1h-2.195c5.049 99.228 72.664 192.968 167.063 230.069zm-99.01 1301.161c3.293-4.17 6.586-8.12 9.88-12.29 21.074-27.01 43.027-54.89 74.42-67.84 47.419-19.54 100.106-3.73 127.328 7.25 39.516 16.02 89.789 10.09 138.305-16.47 29.417-16.02 55.541-37.54 81.007-58.39 10.757-8.79 21.953-17.79 32.93-26.35 29.856-22.83 75.738-53.56 127.767-56.86 28.978-1.75 57.956 5.05 85.837 11.64 16.684 3.95 33.807 7.9 50.931 10.32 56.419 7.46 114.376-4.39 163.112-33.37 12.733-7.47 25.026-16.25 36.881-24.81 26.344-18.88 53.346-38.2 85.398-44.34 31.612-6.15 64.103 1.75 95.281 9.22 11.19 2.63 22.83 5.48 34.24 7.68 55.76 10.32 111.08 4.17 156.09-16.9 50.49-23.93 87.59-67.4 99.45-116.14 7.02-28.76.44-63-25.69-73.1-12.29-4.83-25.68-2.85-38.42-.88-6.58.88-13.17 1.98-19.75 1.98-18.88.44-37.11-6.59-54.45-13.39-7.9-3.08-15.8-6.15-23.93-8.57-69.81-21.071-143.79 4.39-208.991 26.79-69.152 23.71-142.037 45-207.457 21.73-32.93-11.85-61.688-34.25-89.349-55.98-34.686-27.222-70.689-55.322-114.815-61.688-41.491-5.928-82.983 9-118.108 24.148-6.586 2.854-13.172 5.927-19.758 8.781-29.856 13.392-60.81 27.442-93.52 32.489-44.784 6.81-87.593-7.023-108.668-35.123-34.466-45.663-91.545-72.884-165.526-79.031a404.707 404.707 0 0 0-32.93-1.318c-52.468 0-109.766 9.44-164.868 27.442v2.195c66.957-21.953 137.207-31.173 197.798-26.344 73.323 5.928 129.962 32.93 163.99 78.154 21.733 28.758 65.2 43.025 110.863 36.005 33.149-5.05 64.103-19.102 94.179-32.493 6.585-3.073 13.171-5.927 19.757-8.781 34.686-15.148 75.739-29.856 116.791-23.929 43.687 6.147 79.251 34.247 113.717 61.253 27.881 21.73 56.639 44.34 90.008 56.2 66.298 23.49 139.622 2.19 208.994-21.74 64.981-22.39 138.523-47.636 207.673-26.78 7.91 2.41 16.03 5.49 23.93 8.56 17.78 6.81 36.01 13.83 55.32 13.39 6.59-.22 13.4-1.09 19.98-1.97 13.17-1.98 25.69-3.73 37.32.66 24.81 9.66 30.96 42.8 24.37 70.47-11.64 48.29-48.3 91.1-98.35 114.81-44.57 21.08-99.45 27-154.77 16.9-11.42-2.19-22.83-4.83-34.03-7.46-31.61-7.46-64.1-15.37-96.371-9.22-32.491 6.15-59.713 25.68-86.276 44.78-11.855 8.57-24.149 17.35-36.662 24.81-48.297 28.76-105.814 40.39-161.794 33.15-17.124-2.2-34.247-6.37-50.712-10.1-28.1-6.58-57.298-13.39-86.495-11.63-52.688 3.29-99.009 34.24-129.085 57.29-11.196 8.57-22.392 17.57-33.149 26.35-25.246 20.63-51.59 42.15-80.788 58.17-47.858 26.13-97.472 32.06-136.328 16.25-27.442-11.2-80.788-27.22-128.865-7.25-32.052 13.18-54.005 41.28-75.3 68.5-3.293 4.17-6.585 8.34-9.878 12.29-29.198 36.44-57.298 55.98-85.837 59.5v2.19c29.198-3.95 57.737-23.93 87.373-60.81z"/><path d="M-156.045 1432.98c24.368-30.3 47.2-58.84 82.325-72.01 29.636-11.19 62.566-4.17 94.618 2.64 19.1 4.17 38.857 8.34 57.956 8.56 96.155 1.97 181.113-.44 248.509-47.2 10.757-7.47 20.636-16.03 30.515-24.15 13.172-11.2 26.783-22.83 42.15-31.61 55.761-32.27 126.011-25.03 192.968-14.93 61.469 9.22 137.866 20.85 196.92-14.49 11.854-7.02 22.612-15.81 32.93-24.15 10.537-8.56 21.514-17.56 33.588-24.59 32.051-18.66 73.104-25.9 129.304-22.39 13.611.88 27.442 2.2 40.832 3.51 30.52 2.86 61.91 5.93 93.08 3.52 29.86-2.42 50.27-12.3 59.06-28.54 7.24-13.61 6.14-31.61-3.08-47.2-22.39-37.76-73.98-43.69-121.4-44.35-51.15-.87-104.056-1.53-154.768 10.98-22.173 5.49-44.126 13.83-65.201 21.73-13.83 5.27-28.1 10.54-42.369 15.15-43.907 14.05-80.349 17.13-111.303 9-24.587-6.36-46.76-20.19-68.054-33.37-13.611-8.56-27.661-17.12-42.589-24.14-71.787-33.37-157.185-22.62-238.851-5.71-5.268 1.09-10.537 2.19-15.806 3.29-74.201 15.37-150.818 31.39-223.483 12.07l-3.732-1.09c-27.002-7.25-55.102-14.49-75.957-31.62-8.562-7.02-16.685-14.7-24.588-21.95-12.513-11.853-25.685-24.147-40.394-33.807-17.782-11.635-48.077-18.001-79.69-18.001-21.733 0-44.345 3.073-63.664 9.44v2.414C-149.458 954.4-83.16 958.79-53.963 977.89c14.709 9.439 27.662 21.733 40.175 33.37 7.903 7.46 16.025 15.15 24.587 22.17 21.295 17.34 49.395 24.81 76.836 32.05l3.732 1.1c73.104 19.32 150.16 3.29 224.581-12.07 5.268-1.1 10.537-2.2 15.587-3.3 81.226-16.68 166.185-27.66 237.532 5.71 14.709 6.81 28.759 15.59 42.37 23.93 21.514 13.39 43.687 27 68.713 33.59 31.393 8.12 68.055 5.27 112.62-9 14.269-4.61 28.758-10.1 42.589-15.15 21.075-7.9 42.809-16.03 64.981-21.73 50.492-12.52 103.18-11.86 154.33-10.98 46.98.66 97.69 6.37 119.65 43.25 8.78 14.93 9.87 32.05 2.85 45-10.76 19.76-37.1 25.91-57.3 27.44-30.73 2.42-62.35-.44-92.64-3.51-13.39-1.32-27.22-2.63-40.834-3.51-56.639-3.52-98.13 3.73-130.621 22.61-12.074 7.02-23.051 16.02-33.808 24.59-10.318 8.34-21.075 17.12-32.71 23.93-58.615 34.9-134.572 23.27-195.602 14.05-67.396-10.1-137.866-17.35-194.285 15.14-15.367 9-29.198 20.64-42.37 31.84-9.659 8.12-19.758 16.68-30.295 24.14-66.957 46.54-151.696 48.74-247.192 46.98-18.88-.44-38.638-4.61-57.518-8.56-32.27-6.8-65.64-13.83-95.715-2.63-35.564 13.39-59.713 43.46-83.202 72.66-12.075 14.93-24.369 30.3-38.199 43.47v3.07c13.83-13.17 26.563-28.98 39.076-44.56z"/><path d="M-29.375 1282.38c31.832-4.61 74.86 0 106.472 3.51 86.935 9.44 170.137 14.49 235.996-27.22 11.416-7.24 21.953-15.81 32.271-24.15 16.685-13.39 34.028-27.44 54.444-35.34 28.978-11.42 61.469-9.66 92.862-7.91l6.366.44c27.661 1.54 44.565-4.39 51.371-18 8.561-17.12-4.83-37.76-22.173-48.73-28.759-18.23-64.762-21.08-99.009-22.4-140.719-5.48-282.097 5.05-420.182 31.84-15.148 2.85-28.32.65-37.32-6.59-6.806-5.49-12.294-12.29-17.563-19.1-2.854-3.51-5.927-7.24-9-10.76-21.515-23.93-54.445-36.66-87.155-36.66-18.879 0-37.759 4.39-54.224 13.17v2.42c44.126-24.59 106.034-14.93 139.841 22.39 3.074 3.51 5.928 7.03 8.782 10.54 5.488 6.8 10.976 13.83 18.001 19.32 9.44 7.68 23.27 10.09 39.077 7.02 137.865-26.56 279.024-37.32 419.524-31.83 34.027 1.32 69.372 4.17 97.911 22.17 16.245 10.32 29.417 29.86 21.294 45.88-6.366 12.74-22.392 18.01-49.175 16.69l-6.366-.44c-31.613-1.76-64.323-3.51-93.74 8.12-20.636 8.12-38.198 22.17-54.883 35.79-10.318 8.34-20.855 16.9-32.051 23.92-65.201 41.28-148.184 36.23-234.46 26.79-31.612-3.52-74.86-8.13-107.13-3.52-28.54 4.18-53.347 18.45-77.495 32.28-27.222 15.58-55.322 31.61-88.91 33.15v2.19c34.027-1.54 62.347-17.78 90.007-33.59 23.93-13.17 48.517-27.44 76.617-31.39zm143.132 229.41c-15.587-10.54-36.003-16.25-59.273-16.47h-1.098c-55.541 0-111.961 29.86-154.989 81.89-26.783 32.49-46.102 69.81-63.006 107.79h2.415c16.685-37.54 35.784-74.2 62.127-106.47 42.15-51.15 99.887-81.67 154.331-81.23 22.831.22 42.809 5.71 57.956 16.03 28.979 19.75 43.028 59.49 35.784 101.42-4.171 24.81-14.928 48.3-27.002 70.25h2.415c12.074-21.73 22.611-45 26.782-69.81 7.684-42.59-6.805-83.2-36.442-103.4zM-34.425 652.325c69.81 38.418 146.647 44.565 205.262 16.684 30.515-14.489 59.054-44.126 54.444-77.714-3.952-28.539-28.759-46.54-52.688-63.883-20.855-15.148-42.37-30.735-51.151-53.346-6.586-16.685-5.049-35.345-3.732-53.127 1.317-17.782 2.635-36.003-3.512-52.907-7.025-19.538-24.807-37.101-49.615-48.955-14.928-7.245-31.173-12.075-46.76-16.685a451.068 451.068 0 0 1-20.855-6.586C-79.43 270.341-154.07 199.871-196.22 140.159v3.732c42.589 59.493 116.79 128.645 192.53 154.111 6.805 2.195 14.05 4.39 20.855 6.586 15.586 4.61 31.612 9.659 46.32 16.684 24.369 11.635 41.712 28.758 48.517 47.858 5.928 16.465 4.611 34.466 3.293 52.029-1.317 18.221-2.634 37.1 3.952 54.224 9.001 23.27 30.734 39.076 51.809 54.224 24.588 17.782 47.858 34.686 51.81 62.347 4.39 32.49-23.49 61.249-53.127 75.519-57.956 27.441-133.914 21.294-203.067-16.685-56.2-30.734-116.351-93.081-162.672-142.695v3.293c46.321 48.955 105.814 110.424 161.575 140.939z"/><path d="M-66.476 547.608c35.344 21.295 69.59 24.807 91.544 9.44 18.002-12.733 27.003-37.759 24.807-68.713-3.732-56.639-36.003-113.498-88.251-155.867-39.955-32.271-90.228-56.859-157.843-76.836v2.195c66.957 19.758 117.01 44.126 156.525 76.177 51.81 41.931 83.642 98.131 87.374 154.111.878 14.27.439 49.395-23.929 66.738-31.393 22.173-76.177-1.537-89.13-9.44-37.54-22.612-101.643-109.107-130.84-155.867v4.61c30.295 47.419 92.861 131.06 129.743 153.452z"/></g></g><defs><clipPath id="background-pattern_svg__clip0"><path fill="#fff" d="M0 0h1440v1570H0z"/></clipPath><clipPath id="background-pattern_svg__clip1"><path fill="#fff" transform="rotate(-180 1307 831)" d="M0 0h2810v1663H0z"/></clipPath></defs></svg>